<?xml version="1.0" encoding="UTF-8" standalone="no"?>
<!-- Created with Inkscape (http://www.inkscape.org/) -->

<svg
   width="1000.0001"
   height="1000.0001"
   viewBox="0 0 264.58335 264.58335"
   version="1.1"
   id="svg1"
   xml:space="preserve"
   xmlns="http://www.w3.org/2000/svg"
   xmlns:svg="http://www.w3.org/2000/svg"><defs
     id="defs1" /><rect
     style="opacity:1;fill:#00a849;fill-opacity:1;fill-rule:evenodd;stroke:none;stroke-width:0;stroke-linecap:round;stroke-linejoin:round;stroke-dasharray:none;stroke-opacity:1"
     id="rect26"
     width="264.58334"
     height="264.58334"
     x="0"
     y="0"
     ry="47.084961" /><g
     id="layer1"
     style="display:inline;opacity:1"><g
       id="g8"
       transform="translate(1.1746007,0.34826242)"><path
         style="fill:#ffffff;fill-opacity:1;stroke:#5b5b5b;stroke-width:0;stroke-linecap:round;stroke-linejoin:round;stroke-dasharray:none;stroke-opacity:1"
         d="m 49.005822,89.101609 49.221311,28.942121 c -1.569243,3.52299 -2.759232,9.53819 2.362627,12.60067 l 106.71179,62.80639 c 2.98639,1.9948 3.5977,5.2851 0.7813,7.27992 L 170.28714,223.968 c -3.01521,1.7193 -6.41495,2.02064 -10.63181,-0.39378 L 52.352868,156.63325 c -2.727241,-2.01472 -4.653305,-3.16416 -4.528356,-7.67852 l -0.19689,-55.91542 c 0.102675,-1.877389 0.725572,-2.862955 1.3782,-3.937701 z"
         id="path1" /><path
         style="fill:#ffffff;fill-opacity:1;stroke:#5b5b5b;stroke-width:0;stroke-linecap:round;stroke-linejoin:round;stroke-dasharray:none;stroke-opacity:1"
         d="m 54.261995,82.507445 51.228675,30.724715 21.4723,-13.534154 c 4.84413,-2.628777 7.43851,-2.307297 11.13756,-0.08634 l 29.26848,17.181204 46.68304,-28.45723 c 0.01,-1.179321 -1.1311,-3.373441 -2.44779,-4.335033 l -75.0578,-44.393649 c -2.76187,-1.531096 -5.94236,-1.325379 -8.75752,0.296464 z"
         id="path2" /><path
         style="fill:#ffffff;fill-opacity:1;stroke:#5b5b5b;stroke-width:0;stroke-linecap:round;stroke-linejoin:round;stroke-dasharray:none;stroke-opacity:1"
         d="m 174.26155,121.28931 40.31826,-25.315079 0.0267,46.044569 c -0.078,1.93131 -1.68034,3.72424 -4.68484,2.0937 z"
         id="path3" /></g></g></svg>
